<svg width="14" height="19" viewBox="0 0 14 19" fill="none" xmlns="http://www.w3.org/2000/svg">
  <path d="M12.357 8.24439L7.38525 0.327388C7.31312 0.226145 7.21783 0.14361 7.10733 0.0866613C6.99683 0.0297126 6.87431 0 6.75 0C6.62569 0 6.50318 0.0297126 6.39267 0.0866613C6.28217 0.14361 6.18688 0.226145 6.11475 0.327388L1.1205 8.28264C0.427245 9.40182 0.0407977 10.6838 0 11.9996C0 13.7898 0.711159 15.5067 1.97703 16.7726C3.2429 18.0385 4.95979 18.7496 6.75 18.7496C8.54021 18.7496 10.2571 18.0385 11.523 16.7726C12.7888 15.5067 13.5 13.7898 13.5 11.9996C13.457 10.669 13.0626 9.37337 12.357 8.24439ZM6.75 17.2496C5.35822 17.2477 4.02402 16.6939 3.03988 15.7098C2.05574 14.7256 1.50198 13.3914 1.5 11.9996C1.54063 10.951 1.85561 9.93128 2.4135 9.04239L3.11475 7.92489L10.6702 15.4804C10.1794 16.0362 9.57614 16.4815 8.90031 16.7866C8.22447 17.0918 7.49153 17.2491 6.75 17.2496Z" fill="white" />
</svg>