<svg width="24" height="24" viewBox="0 0 24 24" fill="none" xmlns="http://www.w3.org/2000/svg">
  <g clip-path="url(#clip0_1_220)">
    <path d="M19.4666 17.8133C17.7299 17.7937 16.0461 17.2127 14.6669 16.1571C13.2877 15.1015 12.287 13.628 11.8144 11.9566C11.3418 10.2853 11.4227 8.50598 12.0449 6.88442C12.6671 5.26286 13.7973 3.88616 15.2666 2.96C14.5242 2.76714 13.7604 2.66859 12.9933 2.66667C10.518 2.66667 8.14398 3.65 6.39364 5.40034C4.6433 7.15068 3.65997 9.52465 3.65997 12C3.65997 14.4754 4.6433 16.8493 6.39364 18.5997C8.14398 20.35 10.518 21.3333 12.9933 21.3333C14.3956 21.3321 15.7791 21.0107 17.0384 20.3938C18.2977 19.7769 19.3995 18.8806 20.26 17.7733C19.9964 17.7998 19.7316 17.8131 19.4666 17.8133Z" fill="#0C0C0C" />
  </g>
  <defs>
    <clipPath id="clip0_1_220">
      <rect width="24" height="24" rx="12" fill="white" />
    </clipPath>
  </defs>
</svg>