<svg width="22" height="20" viewBox="0 0 22 20" fill="none" xmlns="http://www.w3.org/2000/svg">
  <path d="M10.75 0.75V2.25M15.75 10.75C15.75 9.42392 15.2232 8.15215 14.2855 7.21447C13.3479 6.27678 12.0761 5.75 10.75 5.75C9.42392 5.75 8.15215 6.27678 7.21447 7.21447C6.27678 8.15215 5.75 9.42392 5.75 10.75M4.738 4.74L3.678 3.679M20.75 10.75H19.25M2.25 10.75H0.75M17.82 3.679L16.76 4.739M5.25 13.75V16.75C5.25 17.693 5.25 18.164 5.543 18.457C5.836 18.75 6.307 18.75 7.25 18.75C8.193 18.75 8.664 18.75 8.957 18.457C9.25 18.164 9.25 17.693 9.25 16.75V13.75M12.25 13.75L14.25 18.75L16.25 13.75" stroke="white" stroke-width="1.5" stroke-linecap="round" stroke-linejoin="round" />
</svg>