<svg width="22" height="18" viewBox="0 0 22 18" fill="none" xmlns="http://www.w3.org/2000/svg">
  <path d="M10.818 0C16.21 0 20.696 3.88 21.637 9C20.697 14.12 16.21 18 10.818 18C5.426 18 0.94 14.12 0 9C0.94 3.88 5.426 0 10.818 0ZM10.818 16C12.8576 15.9998 14.8368 15.3071 16.4315 14.0355C18.0261 12.7638 19.1419 10.9884 19.596 9C19.1406 7.01282 18.0245 5.23896 16.43 3.96854C14.8355 2.69813 12.8572 2.00635 10.8185 2.00635C8.77981 2.00635 6.80146 2.69813 5.207 3.96854C3.61254 5.23896 2.49636 7.01282 2.041 9C2.4951 10.9883 3.61067 12.7635 5.20514 14.0352C6.79961 15.3068 8.77853 15.9996 10.818 16ZM10.818 13.5C9.62453 13.5 8.47993 13.0259 7.63602 12.182C6.79211 11.3381 6.318 10.1935 6.318 9C6.318 7.80653 6.79211 6.66193 7.63602 5.81802C8.47993 4.97411 9.62453 4.5 10.818 4.5C12.0115 4.5 13.1561 4.97411 14 5.81802C14.8439 6.66193 15.318 7.80653 15.318 9C15.318 10.1935 14.8439 11.3381 14 12.182C13.1561 13.0259 12.0115 13.5 10.818 13.5ZM10.818 11.5C11.481 11.5 12.1169 11.2366 12.5858 10.7678C13.0546 10.2989 13.318 9.66304 13.318 9C13.318 8.33696 13.0546 7.70107 12.5858 7.23223C12.1169 6.76339 11.481 6.5 10.818 6.5C10.155 6.5 9.51907 6.76339 9.05023 7.23223C8.58139 7.70107 8.318 8.33696 8.318 9C8.318 9.66304 8.58139 10.2989 9.05023 10.7678C9.51907 11.2366 10.155 11.5 10.818 11.5Z" fill="white" />
</svg>